<?xml version="1.0" standalone="no"?>
<!DOCTYPE svg PUBLIC "-//W3C//DTD SVG 20010904//EN"
 "http://www.w3.org/TR/2001/REC-SVG-20010904/DTD/svg10.dtd">
<svg version="1.0" xmlns="http://www.w3.org/2000/svg"
 width="16.000000pt" height="16.000000pt" viewBox="0 0 16.000000 16.000000"
 preserveAspectRatio="xMidYMid meet">
<metadata>
Created by potrace 1.11, written by Peter Selinger 2001-2013
</metadata>
<g transform="translate(0.000000,16.000000) scale(0.002238,-0.002238)"
fill="#000000" stroke="none">
<path d="M4730 5919 c0 -6 -6 -9 -14 -6 -8 3 -17 1 -20 -6 -3 -8 -5 -6 -5 3
-1 13 -2 13 -11 0 -7 -11 -10 -11 -10 -2 0 8 -5 10 -12 5 -15 -9 -19 -10 -81
-11 -35 -2 -46 -5 -41 -14 5 -10 4 -10 -6 -1 -8 7 -19 9 -29 4 -9 -5 -24 -7
-33 -6 -10 2 -18 0 -18 -4 0 -4 -10 -7 -22 -6 -13 1 -29 -2 -35 -8 -9 -6 -13
-5 -13 4 0 12 -2 12 -9 0 -5 -7 -15 -11 -22 -9 -8 3 -19 -2 -26 -11 -10 -12
-12 -13 -13 -2 0 9 -4 10 -12 4 -7 -6 -21 -11 -30 -12 -41 -3 -48 -5 -48 -14
0 -5 -11 -7 -25 -5 -13 3 -22 1 -19 -3 3 -5 -4 -9 -15 -9 -12 0 -21 -4 -21 -9
0 -5 -6 -9 -12 -8 -33 1 -49 -4 -43 -13 4 -7 -3 -9 -19 -6 -19 3 -26 0 -26
-12 0 -12 -3 -13 -11 -5 -9 9 -15 8 -26 -3 -8 -8 -19 -12 -24 -9 -5 4 -9 2 -9
-4 0 -5 -13 -12 -30 -16 -16 -4 -30 -11 -30 -16 0 -5 -7 -9 -15 -9 -8 0 -15
-6 -15 -12 0 -9 -3 -8 -10 2 -8 12 -10 12 -15 -2 -4 -9 -13 -19 -21 -22 -10
-4 -13 -1 -9 7 4 6 0 4 -8 -5 -8 -10 -19 -18 -26 -18 -6 0 -11 -5 -11 -11 0
-5 -5 -7 -10 -4 -6 3 -13 -1 -16 -9 -3 -9 -15 -16 -26 -16 -10 0 -16 -4 -13
-10 3 -5 -1 -10 -9 -10 -9 0 -16 -4 -16 -10 0 -5 -6 -9 -12 -7 -7 1 -12 -4
-10 -11 1 -8 -2 -11 -7 -8 -12 8 -42 -4 -36 -14 3 -5 -4 -11 -15 -15 -11 -3
-20 -11 -20 -16 0 -5 -6 -9 -14 -9 -8 0 -17 -6 -19 -12 -4 -10 -6 -10 -6 0 -1
7 -5 10 -11 7 -5 -3 -10 -1 -10 5 0 6 -7 18 -15 26 -9 9 -15 11 -15 4 0 -7 -5
-6 -14 2 -8 7 -12 16 -9 21 2 4 1 7 -4 6 -13 -4 -63 23 -63 33 0 5 -4 7 -9 3
-5 -3 -16 2 -24 10 -9 8 -22 15 -29 15 -8 0 -24 9 -36 20 -12 12 -22 18 -22
14 0 -3 -8 0 -17 7 -15 12 -16 12 -8 -1 7 -12 6 -13 -7 -3 -8 7 -19 9 -23 5
-5 -4 -6 -2 -3 3 3 6 -9 17 -28 26 -18 9 -31 12 -28 8 3 -5 -2 -6 -10 -3 -9 3
-16 10 -16 15 0 5 -9 9 -20 9 -11 0 -20 6 -20 13 0 8 -4 7 -10 -3 -5 -8 -10
-10 -10 -4 0 10 -97 42 -112 36 -5 -1 -8 2 -8 8 0 5 -11 10 -25 10 -14 0 -25
4 -25 8 0 4 -14 9 -32 10 -18 2 -35 8 -39 13 -4 8 -8 7 -12 -2 -4 -10 -6 -10
-6 -1 -1 6 -11 12 -24 12 -13 0 -29 6 -36 13 -11 10 -13 10 -7 0 4 -7 2 -13
-3 -13 -6 0 -11 4 -11 9 0 5 -21 12 -47 15 -27 4 -57 9 -68 12 -11 2 -39 5
-62 6 -24 2 -43 7 -43 12 0 5 -3 7 -6 3 -3 -3 -17 -2 -30 3 -13 5 -24 6 -24 1
0 -4 -11 -6 -25 -3 -14 2 -25 9 -25 14 0 6 -7 5 -15 -2 -12 -10 -15 -10 -15 1
0 10 -3 10 -12 1 -7 -7 -17 -8 -30 -1 -13 7 -18 6 -18 -2 0 -8 -4 -8 -12 -2
-20 16 -68 22 -68 9 0 -6 -5 -4 -10 4 -5 8 -10 10 -10 4 0 -7 -15 -9 -45 -4
-27 4 -45 3 -45 -3 0 -5 -7 -4 -15 3 -8 7 -15 8 -15 3 0 -6 -18 -7 -45 -3 -27
4 -45 3 -45 -3 0 -5 -7 -4 -15 3 -8 7 -15 8 -15 3 0 -6 -18 -7 -45 -3 -27 4
-45 3 -45 -3 0 -5 -7 -4 -15 3 -8 7 -15 8 -15 3 0 -5 -18 -8 -40 -6 -22 1 -40
-3 -40 -8 0 -6 -6 -6 -18 0 -11 6 -24 6 -36 -1 -14 -8 -21 -7 -27 3 -5 9 -9
10 -9 3 0 -7 -14 -11 -35 -10 -19 1 -35 -2 -35 -6 0 -4 -9 -5 -20 -3 -11 2
-20 -1 -20 -7 0 -7 -6 -6 -15 2 -9 7 -15 8 -15 2 0 -6 -11 -9 -25 -7 -14 1
-25 -3 -25 -9 0 -6 -5 -4 -10 4 -7 12 -10 12 -10 1 0 -7 -6 -11 -15 -8 -8 4
-17 2 -20 -3 -4 -6 -11 -10 -16 -10 -6 0 -7 5 -3 12 4 6 -3 4 -16 -5 -17 -12
-28 -13 -41 -6 -15 7 -17 6 -13 -5 4 -11 0 -14 -15 -11 -12 2 -21 0 -21 -5 0
-6 -8 -9 -17 -8 -27 3 -93 -13 -93 -23 0 -5 -7 -6 -15 -3 -8 4 -15 1 -15 -4 0
-6 -9 -9 -20 -7 -11 2 -20 0 -20 -6 0 -5 -3 -8 -7 -8 -25 4 -43 -2 -37 -13 4
-7 3 -8 -4 -4 -6 4 -28 -1 -49 -10 -21 -10 -42 -18 -46 -18 -4 -1 -12 -7 -16
-15 -6 -10 -10 -10 -16 -1 -5 8 -11 6 -22 -7 -8 -10 -11 -11 -7 -3 4 8 -3 5
-15 -7 -12 -13 -28 -23 -36 -23 -8 0 -15 -4 -15 -9 0 -5 -8 -12 -17 -15 -25
-9 -60 -30 -81 -49 -10 -10 -24 -17 -30 -17 -7 0 -12 -5 -12 -11 0 -5 -5 -7
-10 -4 -6 3 -10 -1 -10 -10 0 -9 -4 -13 -10 -10 -5 3 -10 1 -10 -5 0 -6 -4 -9
-9 -6 -5 3 -12 -1 -15 -10 -3 -8 -11 -12 -16 -9 -6 4 -10 3 -9 -2 3 -19 -2
-34 -10 -29 -5 4 -19 -6 -31 -21 -12 -16 -18 -22 -14 -14 5 9 3 12 -4 7 -7 -4
-12 -14 -12 -22 0 -8 -4 -12 -10 -9 -5 3 -10 -1 -10 -9 0 -9 -5 -15 -12 -13
-7 1 -12 -2 -13 -8 -1 -18 -30 -55 -42 -55 -7 0 -12 -4 -10 -9 1 -5 -11 -23
-26 -40 -15 -17 -25 -36 -22 -40 2 -5 -4 -11 -15 -14 -11 -3 -20 -9 -19 -14 4
-22 -2 -44 -10 -38 -5 3 -15 -12 -22 -32 -7 -21 -19 -44 -28 -51 -9 -8 -11
-11 -4 -8 8 5 8 0 0 -19 -7 -14 -15 -25 -19 -25 -5 0 -8 -6 -8 -14 0 -8 -6
-17 -12 -19 -9 -4 -9 -6 1 -6 11 -1 10 -5 -5 -17 -10 -8 -13 -13 -6 -9 6 3 12
2 12 -3 0 -6 -7 -12 -15 -15 -8 -4 -12 -15 -10 -27 2 -11 -1 -20 -7 -20 -6 0
-9 -3 -5 -6 3 -4 0 -19 -8 -34 -8 -15 -11 -30 -8 -34 4 -3 2 -6 -3 -6 -6 0
-11 -17 -12 -37 -2 -20 -7 -42 -13 -49 -5 -6 -7 -19 -3 -28 3 -9 1 -16 -6 -16
-6 0 -9 -4 -5 -9 3 -5 1 -13 -5 -16 -8 -5 -7 -12 2 -23 8 -9 8 -13 2 -9 -7 4
-14 0 -18 -8 -3 -8 0 -15 6 -15 7 0 7 -4 -1 -14 -6 -7 -12 -32 -13 -55 -1 -22
-5 -41 -9 -41 -4 0 -4 -13 1 -30 5 -17 5 -30 0 -30 -5 0 -7 -9 -5 -20 2 -11
-1 -20 -7 -20 -7 0 -7 -5 1 -14 9 -11 9 -15 -1 -19 -11 -4 -10 -6 0 -6 7 -1
10 -5 7 -11 -4 -6 2 -7 17 -1 15 5 31 5 41 0 12 -7 17 -6 17 3 0 9 3 9 10 -2
9 -13 10 -13 10 0 0 13 1 13 10 0 5 -8 10 -10 10 -5 0 7 24 8 65 5 36 -3 65
-2 65 2 0 3 14 3 30 -2 21 -6 30 -5 30 3 0 7 4 6 10 -3 5 -8 10 -10 10 -4 0 6
10 10 22 8 13 -1 23 -3 23 -4 0 0 44 -2 98 -3 53 -1 97 1 97 5 0 4 13 3 29 -2
21 -6 31 -5 35 3 3 9 5 9 5 0 1 -9 8 -10 24 -4 14 5 30 5 40 0 12 -7 17 -6 17
3 0 9 3 9 10 -2 9 -13 10 -13 10 0 0 13 1 13 10 0 5 -8 10 -10 10 -5 0 7 24 8
65 5 36 -3 65 -2 65 2 0 3 14 3 30 -2 21 -6 30 -5 30 3 0 7 4 6 10 -3 5 -8 10
-10 10 -4 0 9 31 11 50 4 3 -1 8 -2 11 -2 3 1 26 2 51 3 39 2 46 6 43 21 -2
10 0 18 4 18 5 0 6 11 4 24 -3 13 0 27 6 30 5 4 8 13 4 21 -3 8 0 15 5 15 6 0
9 9 7 20 -2 11 0 20 6 20 5 0 9 12 9 26 0 14 4 23 9 20 5 -4 8 2 6 11 -1 10 7
29 19 42 11 13 15 21 9 17 -20 -11 -15 8 6 23 11 8 17 20 14 28 -3 7 0 13 7
13 6 0 8 5 5 10 -3 6 1 10 9 10 9 0 16 5 16 10 0 6 12 24 28 41 15 17 26 36
24 41 -1 5 2 6 8 3 6 -4 20 3 30 15 10 12 24 19 29 15 6 -3 11 0 11 7 0 8 10
15 22 15 13 1 24 7 26 13 2 5 8 8 13 4 5 -3 9 -1 9 4 0 6 7 13 16 16 8 3 13 2
10 -3 -3 -4 10 -1 28 8 19 9 31 21 28 26 -3 6 0 5 7 -1 13 -12 61 -7 61 7 0
11 23 7 32 -6 5 -6 8 -5 8 4 0 7 6 11 15 7 8 -3 15 -2 15 2 0 4 24 7 53 7 28
0 55 5 59 10 5 6 8 5 8 -4 0 -11 3 -11 15 -1 11 9 15 9 15 1 0 -8 6 -9 18 -3
9 5 26 6 37 2 11 -4 28 -3 38 2 11 6 17 5 17 -2 0 -8 6 -8 20 0 15 8 20 8 20
-1 0 -7 3 -10 6 -7 3 4 19 2 35 -2 18 -5 31 -5 35 2 4 6 10 5 15 -3 7 -11 9
-11 9 -1 0 9 8 9 35 -2 23 -10 37 -11 41 -4 4 7 9 6 14 -2 4 -7 26 -13 48 -14
22 -1 38 -4 35 -8 -2 -5 7 -8 21 -8 14 0 26 -6 26 -12 0 -9 4 -8 10 2 5 8 10
10 10 5 0 -10 58 -39 73 -36 4 0 7 -4 7 -10 0 -6 7 -9 15 -6 8 4 17 1 21 -5 5
-7 2 -8 -6 -3 -9 5 -11 4 -6 -3 4 -7 16 -12 26 -12 10 0 22 -9 25 -20 4 -11
11 -18 16 -15 5 4 9 -1 9 -10 0 -9 5 -13 10 -10 6 3 10 -1 10 -10 0 -9 4 -13
10 -10 6 3 7 -1 4 -9 -4 -10 -1 -16 9 -16 10 0 15 -7 12 -20 -2 -11 2 -23 8
-27 7 -5 13 -17 15 -28 1 -11 3 -28 4 -37 1 -10 6 -18 11 -18 4 0 5 -5 2 -10
-4 -6 -1 -17 5 -25 10 -12 10 -15 -1 -15 -11 0 -11 -2 1 -10 9 -6 10 -10 3
-10 -8 0 -9 -9 -3 -30 6 -21 5 -30 -3 -30 -7 0 -6 -4 3 -10 9 -6 11 -10 3 -10
-7 0 -10 -7 -7 -15 3 -8 2 -20 -2 -27 -9 -13 -10 -18 -12 -51 -1 -10 -6 -16
-11 -13 -5 4 -8 -5 -7 -18 2 -14 0 -24 -3 -23 -3 1 -6 -2 -6 -6 0 -5 -11 -15
-25 -22 -14 -7 -25 -18 -25 -24 0 -6 -3 -11 -7 -11 -12 0 -45 -34 -41 -42 2
-3 -5 -5 -14 -4 -10 2 -21 -2 -25 -8 -4 -6 -13 -11 -20 -11 -7 -1 -12 -7 -10
-14 1 -7 -2 -10 -8 -6 -6 4 -18 1 -27 -7 -14 -11 -15 -11 -9 0 7 11 4 11 -13
0 -12 -7 -21 -16 -21 -21 0 -4 -4 -6 -8 -3 -12 7 -82 -16 -82 -27 0 -5 -6 -4
-14 2 -10 9 -16 9 -21 1 -4 -6 -13 -9 -21 -6 -7 3 -16 1 -19 -4 -4 -6 -22 -10
-41 -10 -25 0 -33 -4 -28 -12 5 -10 4 -10 -5 -2 -12 11 -64 7 -57 -5 6 -9 -37
-7 -52 3 -7 4 -12 2 -12 -4 0 -7 -6 -10 -14 -7 -8 3 -17 1 -20 -6 -5 -9 -7 -9
-12 1 -5 10 -9 10 -20 1 -8 -6 -14 -8 -14 -4 0 4 -7 2 -15 -5 -8 -7 -15 -8
-15 -3 0 5 -7 10 -15 10 -8 0 -12 -4 -9 -9 3 -4 -5 -6 -18 -4 -13 2 -31 0 -40
-5 -11 -6 -18 -5 -21 4 -4 9 -6 9 -6 0 -1 -7 -8 -10 -16 -7 -8 4 -15 1 -15 -6
0 -8 -4 -9 -13 -4 -15 11 -38 11 -54 1 -7 -5 -17 -5 -23 -2 -5 3 -10 3 -10 -2
0 -4 -27 -8 -61 -8 -33 0 -63 -3 -66 -8 -2 -4 -20 -6 -39 -5 -22 1 -39 -3 -44
-12 -8 -12 -10 -12 -10 -1 0 11 -3 11 -16 0 -13 -10 -17 -10 -25 2 -6 10 -9
10 -9 2 0 -8 -14 -13 -36 -13 -23 0 -33 -4 -28 -11 4 -8 0 -8 -15 0 -16 9 -21
9 -21 -1 0 -9 -3 -9 -10 2 -8 13 -10 12 -10 -4 0 -15 -3 -16 -15 -6 -10 9 -15
9 -15 1 0 -6 -3 -10 -7 -10 -5 1 -10 0 -13 -1 -9 -3 -64 -10 -92 -11 -15 -1
-26 -4 -24 -8 2 -3 -10 -7 -26 -8 -17 -1 -36 -7 -43 -13 -10 -8 -14 -7 -18 2
-4 11 -6 10 -6 0 -1 -7 -5 -11 -10 -7 -5 3 -17 -2 -25 -11 -9 -8 -16 -11 -16
-6 0 5 -11 7 -25 4 -14 -2 -25 -9 -25 -14 0 -5 -5 -6 -10 -3 -6 4 -17 1 -25
-5 -8 -7 -21 -10 -29 -7 -11 4 -13 1 -9 -10 5 -13 2 -15 -12 -10 -9 4 -24 2
-31 -4 -8 -6 -14 -8 -14 -4 0 4 -7 2 -15 -5 -8 -7 -15 -9 -15 -4 0 5 -4 3 -9
-4 -4 -7 -18 -14 -29 -15 -12 -1 -22 -5 -22 -10 0 -5 -6 -7 -12 -5 -7 3 -19
-1 -26 -9 -8 -7 -18 -11 -23 -8 -5 4 -9 1 -9 -4 0 -6 -7 -11 -16 -11 -9 0 -25
-10 -36 -22 -11 -13 -16 -17 -12 -9 4 8 -14 0 -39 -17 -25 -18 -51 -32 -57
-32 -6 0 -8 -4 -5 -10 3 -5 -1 -10 -9 -10 -8 0 -32 -17 -53 -37 -20 -21 -34
-32 -29 -25 4 6 2 12 -3 12 -6 0 -11 -6 -11 -14 0 -8 -5 -18 -12 -22 -7 -5 -9
-2 -4 7 4 8 0 5 -8 -5 -9 -11 -16 -24 -16 -29 0 -4 -4 -5 -10 -2 -5 3 -10 -1
-10 -9 0 -8 -5 -18 -12 -22 -7 -5 -8 -3 -3 7 8 12 6 12 -8 1 -9 -8 -15 -19
-14 -25 1 -7 -4 -11 -11 -10 -6 2 -12 -3 -12 -11 0 -8 -5 -18 -12 -22 -7 -5
-8 -3 -3 6 6 9 4 11 -4 6 -7 -5 -10 -15 -7 -23 3 -8 2 -12 -2 -9 -10 6 -35
-21 -45 -48 -4 -9 -11 -14 -17 -11 -6 3 -7 -1 -4 -9 4 -9 -1 -18 -10 -22 -9
-3 -13 -10 -10 -15 3 -5 0 -9 -5 -9 -6 0 -11 -7 -11 -15 0 -8 -4 -15 -10 -15
-5 0 -10 -7 -10 -16 0 -9 -8 -23 -17 -31 -12 -10 -13 -12 -3 -8 13 6 13 5 0
-7 -8 -7 -16 -22 -18 -33 -2 -11 -13 -28 -25 -38 -17 -15 -18 -18 -4 -13 16 5
16 4 0 -22 -10 -15 -22 -30 -28 -34 -6 -5 -4 -8 5 -8 10 0 11 -3 4 -8 -6 -4
-10 -15 -8 -25 1 -9 -1 -15 -6 -12 -4 3 -11 -2 -14 -11 -4 -10 -2 -13 7 -8 9
6 9 5 0 -8 -7 -8 -10 -18 -6 -21 3 -4 2 -7 -3 -7 -5 0 -10 -10 -10 -22 -2 -30
-8 -50 -17 -65 -5 -7 -4 -13 2 -13 6 0 8 -7 5 -15 -4 -8 -10 -13 -14 -10 -11
7 -7 -29 5 -37 5 -4 2 -10 -8 -14 -14 -5 -15 -9 -6 -20 9 -11 8 -14 -2 -14
-11 0 -11 -2 1 -10 8 -5 10 -10 4 -10 -7 0 -9 -11 -6 -25 2 -15 0 -25 -7 -25
-8 0 -9 -6 -2 -18 6 -11 6 -24 -1 -36 -6 -10 -6 -21 -2 -25 12 -8 14 -41 3
-41 -6 0 -6 -7 0 -18 6 -11 6 -24 -1 -36 -6 -10 -6 -21 -2 -25 12 -8 14 -41 3
-41 -6 0 -6 -7 0 -18 5 -10 6 -24 2 -31 -5 -7 -2 -29 5 -49 8 -25 9 -39 2 -43
-6 -4 -5 -9 3 -12 12 -4 12 -6 0 -6 -11 -1 -10 -6 4 -21 12 -13 14 -20 5 -20
-10 0 -10 -3 0 -15 9 -11 9 -15 1 -15 -7 0 -9 -5 -6 -10 4 -6 10 -8 14 -6 4 3
6 -13 5 -35 -1 -21 2 -39 7 -39 5 0 9 -9 9 -20 0 -11 6 -20 13 -20 9 0 8 -3
-2 -9 -10 -6 -10 -10 -1 -16 6 -4 9 -13 6 -21 -3 -8 -1 -14 4 -14 6 0 9 -3 8
-7 -4 -16 14 -53 25 -53 7 0 6 -4 -3 -10 -11 -7 -11 -10 -2 -10 7 0 11 -4 7
-9 -3 -5 2 -17 11 -25 8 -9 12 -16 8 -16 -4 0 1 -7 12 -16 10 -8 13 -12 6 -9
-11 6 -11 3 0 -16 7 -13 21 -31 30 -40 10 -9 18 -26 18 -38 0 -12 4 -19 10
-16 5 3 10 -1 10 -9 0 -9 5 -16 10 -16 6 0 10 -6 10 -13 0 -7 9 -19 19 -27 11
-7 18 -17 15 -22 -3 -4 3 -8 13 -8 14 0 15 -2 4 -9 -11 -7 -9 -10 8 -16 11 -3
21 -13 21 -21 0 -8 6 -14 14 -14 18 0 58 -54 48 -65 -4 -5 -1 -5 6 -1 8 5 25
-4 44 -23 18 -17 36 -31 41 -31 6 0 16 -8 24 -18 9 -10 12 -11 7 -2 -5 11 -2
10 12 -3 42 -40 67 -56 75 -51 5 3 9 1 9 -4 0 -6 14 -15 30 -21 17 -5 30 -15
30 -21 0 -6 4 -9 9 -6 5 4 12 0 14 -6 4 -10 6 -10 6 1 1 8 9 5 22 -10 11 -13
17 -18 14 -10 -6 9 -1 9 17 -3 14 -9 28 -13 31 -9 4 3 7 0 7 -7 0 -7 3 -11 6
-7 4 3 24 -3 45 -14 22 -11 39 -17 39 -13 0 4 6 2 12 -3 7 -5 27 -10 43 -12
17 -2 32 -6 35 -10 3 -3 16 -8 30 -10 14 -1 33 -7 42 -12 10 -6 19 -5 23 1 3
5 11 10 16 10 6 0 7 -5 4 -10 -4 -6 8 -10 29 -10 19 0 37 -4 40 -9 5 -7 33 -8
61 0 6 1 17 0 25 -4 25 -9 70 -15 70 -8 0 3 58 5 130 3 95 -2 130 0 130 9 0 8
4 9 13 0 10 -8 17 -7 25 1 9 9 12 9 12 -1 0 -7 5 -9 13 -4 20 13 41 13 49 0 5
-8 8 -7 8 4 0 10 8 15 23 14 12 -1 25 3 29 9 5 8 8 7 8 -2 0 -10 6 -10 28 1
15 8 35 13 45 12 9 -2 17 0 17 5 0 5 8 7 17 6 10 -2 33 3 51 11 18 7 37 11 42
8 6 -4 10 -1 10 5 0 6 5 8 10 5 6 -3 10 -2 10 4 0 6 7 8 15 5 8 -4 15 -1 15 5
0 6 9 11 21 11 11 0 18 4 15 8 -2 4 3 8 12 9 41 4 58 9 70 23 12 13 13 13 7 0
-4 -9 0 -7 9 4 8 10 19 15 25 11 6 -3 11 1 11 10 0 9 4 14 9 11 13 -8 42 4 36
15 -3 4 4 6 15 4 11 -2 18 0 15 5 -5 9 33 26 48 22 5 -1 6 1 3 6 -2 4 11 16
30 27 19 10 34 22 34 27 0 5 8 8 18 6 9 -2 16 3 15 9 -2 7 4 13 12 13 8 0 23
9 32 20 10 11 23 20 29 20 7 0 15 7 18 16 3 8 10 12 16 9 5 -3 10 1 10 10 0 9
4 14 9 11 5 -3 11 1 15 9 3 8 13 15 21 15 10 0 13 5 9 12 -5 8 -2 9 10 5 9 -4
15 -3 12 2 -3 4 4 17 17 27 21 19 21 19 7 -1 -9 -13 -4 -11 12 5 14 14 24 27
23 30 -3 8 33 39 39 32 3 -3 6 0 6 7 0 7 3 10 8 8 4 -2 18 8 32 21 14 14 18
21 10 17 -8 -5 -4 3 10 18 37 39 55 35 54 -10 -1 -21 3 -43 8 -50 6 -7 5 -14
-2 -18 -6 -3 -7 -12 -3 -18 4 -6 9 -30 11 -52 2 -22 8 -45 12 -51 6 -6 5 -15
-2 -22 -7 -7 -8 -12 -2 -12 9 0 14 -17 17 -62 1 -10 4 -18 7 -18 3 0 7 -9 8
-20 4 -43 6 -50 14 -50 4 0 8 -11 8 -25 0 -14 5 -25 11 -25 5 0 8 -4 5 -9 -3
-4 1 -17 9 -27 8 -10 15 -14 15 -9 0 6 17 10 37 10 21 0 41 -4 45 -10 5 -6 8
-5 8 4 0 11 3 11 15 1 8 -7 15 -8 15 -3 0 6 18 7 45 3 27 -4 45 -3 45 3 0 5 7
4 15 -3 11 -9 15 -9 15 -1 0 9 5 9 20 1 12 -6 20 -7 20 -1 0 6 11 6 30 1 21
-6 30 -5 30 3 0 7 4 6 10 -3 7 -11 10 -11 10 -2 0 10 5 10 20 2 15 -8 20 -8
20 2 0 9 3 9 10 -2 9 -13 10 -13 10 0 0 13 1 13 10 0 6 -9 10 -10 10 -3 0 8 9
9 30 3 21 -6 30 -5 30 3 0 7 4 6 10 -3 7 -11 10 -11 10 -2 0 10 5 10 20 2 15
-8 20 -8 20 2 0 9 3 9 10 -2 9 -13 10 -13 10 0 0 13 1 13 10 0 6 -9 10 -10 10
-3 0 8 9 9 30 3 21 -6 30 -5 30 3 0 7 4 6 10 -3 7 -11 10 -11 10 -2 0 10 5 10
20 2 15 -8 20 -8 20 2 0 9 3 9 10 -2 9 -13 10 -13 10 0 0 13 1 13 10 0 6 -9
10 -10 10 -3 0 8 9 9 30 3 21 -6 30 -5 30 3 0 7 4 6 10 -3 7 -11 10 -11 10 -2
0 10 5 10 20 2 15 -8 20 -8 20 2 0 9 3 9 10 -2 5 -8 10 -10 10 -4 0 8 11 9 35
4 21 -5 38 -4 41 2 4 6 10 5 15 -3 5 -8 9 -9 9 -3 0 7 15 9 45 4 27 -4 45 -3
45 3 0 5 7 4 15 -3 8 -7 15 -8 15 -3 0 6 18 7 45 3 27 -4 45 -3 45 3 0 6 5 5
13 -1 8 -7 16 -6 25 4 10 11 10 14 0 14 -10 0 -10 2 0 9 17 10 17 22 1 32 -10
6 -10 11 0 23 11 13 11 16 0 16 -9 0 -7 5 5 11 14 9 20 8 27 -2 7 -11 9 -11 9
-1 0 10 4 9 16 -2 8 -9 20 -14 25 -11 4 3 22 -1 39 -10 18 -9 30 -11 30 -5 0
7 6 8 19 1 10 -6 21 -7 25 -4 3 3 6 1 6 -6 0 -7 4 -9 10 -6 5 3 19 1 30 -5 15
-8 20 -8 20 2 0 11 2 11 8 0 5 -7 16 -10 25 -6 9 3 17 2 17 -3 0 -5 22 -9 49
-9 28 -1 57 -6 65 -14 13 -10 16 -10 16 0 0 10 3 10 15 0 12 -10 15 -10 15 0
0 10 3 10 15 0 12 -10 15 -10 15 1 0 9 3 10 8 3 11 -17 42 -25 42 -11 0 8 4 6
10 -3 6 -9 10 -10 10 -3 0 8 9 9 30 3 17 -5 30 -5 30 0 0 5 13 5 30 0 16 -5
32 -5 35 0 3 5 19 5 35 0 21 -6 30 -5 30 3 0 7 4 6 10 -3 7 -11 10 -11 10 -2
0 7 5 10 11 7 18 -12 59 -13 59 -1 0 6 5 4 10 -4 6 -9 10 -10 10 -3 0 8 9 9
30 3 17 -5 33 -9 37 -10 3 -1 10 4 14 12 7 11 9 10 9 -1 0 -11 4 -10 16 5 8
10 13 14 10 8 -3 -7 5 -14 19 -16 14 -3 25 -2 25 3 0 4 9 6 20 4 11 -2 20 1
20 7 0 7 4 7 13 -1 10 -8 17 -7 25 1 9 9 12 9 12 -1 0 -11 3 -11 15 -1 8 7 28
10 45 8 16 -3 30 -1 30 4 0 4 5 8 11 8 5 0 7 -6 4 -12 -4 -7 1 -4 9 6 12 15
16 16 16 5 0 -11 2 -12 9 0 6 10 10 10 16 1 6 -9 9 -9 15 0 4 6 28 12 54 13
27 1 45 6 42 12 -2 7 9 10 28 9 17 -1 35 1 41 6 5 4 18 6 28 5 9 -2 17 1 17 6
0 6 5 7 10 4 6 -4 17 -1 25 5 8 7 15 9 15 5 0 -4 7 -2 15 5 8 7 15 9 15 5 0
-4 12 0 26 10 15 9 23 12 20 6 -4 -6 -2 -11 3 -11 6 0 11 5 11 11 0 5 4 8 9 4
5 -3 16 1 24 9 8 8 17 12 21 9 3 -3 12 0 21 7 8 7 15 9 15 5 0 -5 10 0 22 11
12 10 18 13 14 7 -4 -7 6 -5 23 5 17 9 31 21 31 26 0 5 7 3 15 -4 8 -7 15 -8
15 -3 0 5 18 17 40 27 22 10 38 21 35 26 -3 5 4 7 15 5 13 -2 20 1 20 11 0 8
7 14 15 14 8 0 15 5 15 11 0 8 4 8 14 0 11 -9 16 -9 22 0 4 8 3 9 -4 5 -7 -4
-12 -5 -12 -3 0 7 73 51 85 52 6 0 9 6 8 13 -2 7 2 13 7 13 6 1 16 2 23 3 6 1
11 7 10 14 -2 7 4 12 13 12 8 0 12 4 9 10 -4 6 1 7 11 3 11 -4 15 -2 11 4 -4
5 5 15 18 21 14 7 25 16 25 22 0 5 5 9 12 7 7 -1 12 4 13 11 0 16 26 33 39 25
5 -3 6 -1 3 4 -4 6 0 16 8 23 8 7 12 16 9 21 -3 5 -2 9 3 8 21 -4 32 3 38 21
4 11 10 18 15 15 8 -5 25 24 21 38 -1 5 2 6 6 4 5 -3 14 1 21 9 7 8 9 14 5 14
-4 0 0 5 10 11 9 6 15 14 12 19 -3 5 4 11 15 15 11 3 19 9 19 13 -3 21 2 32
13 26 8 -5 9 -2 5 9 -4 10 -2 16 5 14 7 -1 12 3 13 8 1 18 32 55 39 47 4 -4 7
-2 5 3 -4 18 23 75 32 69 5 -3 10 0 10 5 1 6 2 16 3 21 0 6 6 14 12 18 10 7
20 27 22 45 1 4 8 15 17 23 8 9 15 21 15 28 0 7 9 22 20 34 12 12 16 22 10 22
-7 0 -4 7 4 16 9 8 19 26 22 40 3 13 10 24 16 24 5 0 6 5 3 10 -3 6 1 13 10
16 13 5 13 9 3 22 -10 12 -10 14 0 8 7 -4 12 -1 12 8 0 9 5 16 11 16 8 0 8 4
0 14 -9 11 -9 15 0 18 7 2 14 15 16 28 2 13 7 27 12 30 4 3 7 13 5 23 -1 9 2
17 7 17 5 0 9 10 9 23 0 13 5 28 12 35 7 7 8 12 4 12 -5 0 -3 7 4 15 7 8 9 15
5 15 -4 0 -2 7 5 15 6 8 9 18 6 24 -3 5 0 12 6 14 9 4 9 6 -1 6 -11 1 -10 5 5
16 14 11 16 15 4 15 -12 0 -10 4 4 15 14 11 16 15 5 15 -12 0 -12 2 1 10 13 8
13 10 1 10 -11 0 -10 4 5 16 10 8 12 12 4 8 -12 -6 -13 -5 -4 7 6 8 10 22 9
32 -2 9 0 17 5 17 4 0 6 10 2 22 -3 12 -1 19 5 15 5 -3 10 0 10 8 0 8 -5 15
-11 15 -6 0 -4 5 4 10 8 5 11 10 5 10 -5 0 -3 5 5 10 8 5 10 10 5 10 -12 0
-12 46 0 57 4 5 5 1 0 -7 -5 -8 -4 -12 0 -7 13 11 14 47 1 39 -6 -3 -4 5 5 18
10 17 13 36 9 63 -4 20 -3 37 2 37 4 0 8 7 8 16 0 9 -5 12 -12 8 -7 -4 -4 2 6
14 12 14 14 22 7 22 -7 0 -9 5 -6 11 9 14 13 69 5 69 -9 0 -6 42 3 58 5 7 3
12 -3 12 -8 0 -7 6 1 21 6 12 7 24 3 28 -13 9 -11 71 1 71 5 0 4 4 -4 9 -8 6
-10 14 -5 22 12 19 14 39 4 39 -8 0 -4 55 5 71 4 5 0 9 -7 9 -9 0 -9 3 2 10
13 8 9 13 -10 12 -3 0 -3 22 -2 49 3 29 -1 56 -8 64 -10 12 -10 15 0 15 10 0
10 3 1 14 -9 10 -9 16 -1 21 8 5 6 13 -5 25 -13 14 -13 19 -3 23 10 4 10 6 1
6 -7 1 -13 6 -13 12 0 5 4 7 10 4 6 -3 7 1 4 9 -3 9 -9 16 -13 16 -4 0 -7 18
-8 41 -1 22 -8 48 -15 57 -11 13 -11 14 2 7 13 -8 13 -7 1 8 -7 9 -10 17 -6
17 4 0 2 6 -4 14 -9 11 -9 16 0 21 8 6 7 10 -4 17 -9 5 -14 15 -11 23 4 9 0
15 -7 15 -11 0 -11 3 1 10 11 7 11 10 2 10 -7 0 -10 5 -7 10 3 6 2 10 -2 10
-5 0 -10 11 -11 25 -3 37 -6 49 -15 56 -4 3 -9 17 -10 30 0 13 -5 27 -9 30 -5
3 -10 16 -13 28 -2 13 -10 30 -17 39 -10 12 -10 14 -1 8 9 -5 11 -2 7 8 -3 9
-10 16 -15 16 -5 0 -9 9 -9 20 0 11 -4 20 -8 20 -4 0 -8 9 -9 20 -1 11 -11 33
-22 49 -12 16 -21 37 -21 46 0 9 -7 23 -15 32 -8 8 -13 19 -10 24 4 5 1 9 -4
9 -6 0 -11 7 -11 16 0 9 -5 12 -12 8 -8 -5 -9 -2 -5 9 3 10 2 17 -4 17 -6 0
-7 5 -4 10 3 6 1 10 -4 10 -6 0 -11 6 -11 14 0 7 -7 19 -15 26 -8 6 -13 17
-12 23 1 7 -4 11 -11 9 -6 -1 -11 1 -10 5 4 14 -13 53 -23 53 -5 0 -9 6 -9 13
0 7 -9 20 -20 30 -11 9 -20 24 -20 32 0 9 -4 13 -10 10 -9 -5 -11 -1 -10 20 1
12 -26 33 -34 27 -5 -3 -6 -1 -3 5 3 5 -12 29 -33 52 -22 24 -37 47 -34 52 3
5 -3 12 -13 16 -19 7 -53 41 -53 53 0 4 -11 13 -25 20 -13 7 -22 16 -20 20 3
4 -5 10 -16 13 -14 4 -20 11 -16 21 4 9 3 15 -1 14 -10 -3 -65 33 -75 49 -4 7
-14 13 -22 13 -8 0 -20 9 -27 20 -7 11 -19 20 -26 20 -8 0 -12 6 -9 14 4 10 1
13 -10 9 -8 -3 -18 -2 -22 3 -15 21 -72 54 -83 48 -7 -4 -8 -3 -4 4 4 7 1 12
-9 12 -9 0 -13 4 -10 10 3 6 -1 7 -9 4 -9 -3 -16 -1 -16 6 0 6 -4 8 -10 5 -5
-3 -10 -1 -10 5 0 7 -7 10 -15 6 -8 -3 -15 0 -15 6 0 6 -3 8 -6 5 -4 -4 -15 3
-25 15 -11 11 -19 17 -19 12 0 -5 -5 -2 -10 6 -9 13 -10 13 -10 0 -1 -12 -3
-11 -11 3 -6 9 -14 15 -20 12 -5 -4 -9 -2 -9 2 0 8 -15 12 -57 15 -7 1 -10 5
-7 9 2 4 -8 9 -23 11 -16 2 -27 8 -26 14 1 6 -5 11 -13 11 -7 0 -14 -5 -14
-11 0 -6 -5 -3 -11 7 -6 9 -15 15 -20 12 -5 -4 -23 0 -39 9 -17 8 -28 10 -24
5 6 -10 2 -9 -52 18 -14 8 -26 8 -39 1 -12 -7 -16 -7 -11 0 3 6 2 13 -4 17 -5
3 -10 2 -10 -3 0 -6 -9 -8 -20 -5 -11 3 -20 10 -20 15 0 7 -5 6 -13 -1 -8 -6
-17 -7 -23 -1 -5 5 -29 12 -53 15 -23 3 -47 8 -52 11 -5 3 -9 0 -9 -7 0 -7 -7
-4 -15 7 -11 14 -14 15 -15 4 0 -13 -1 -13 -10 0 -5 8 -10 10 -10 3 0 -15 -40
-4 -40 11 0 7 -3 7 -8 1 -10 -14 -52 -14 -52 -1 0 6 -4 5 -9 -2 -7 -11 -10
-11 -22 0 -16 15 -81 18 -91 3 -5 -6 -8 -4 -8 5 0 10 -3 11 -11 3 -6 -6 -23
-8 -45 -3 -23 5 -34 4 -34 -4 0 -6 -5 -4 -10 4 -7 11 -10 11 -10 2 0 -10 -5
-10 -20 -2 -11 6 -20 7 -20 2 0 -5 -18 -6 -40 -2 -27 5 -40 4 -40 -4 0 -6 -4
-5 -9 3 -5 8 -11 9 -15 3 -3 -6 -20 -7 -41 -2 -24 5 -35 4 -35 -4 0 -6 -5 -4
-10 4 -7 11 -10 11 -10 2 0 -10 -5 -10 -20 -2 -15 8 -20 8 -20 -1z m150 -942
c0 -5 6 -4 13 2 8 6 16 8 19 5 10 -10 138 -9 138 1 0 6 5 3 10 -5 8 -12 10
-12 10 -1 0 11 3 11 15 1 8 -7 15 -9 15 -4 0 5 4 3 9 -5 8 -12 12 -12 25 -2
12 10 16 10 16 2 0 -7 5 -9 10 -6 6 3 10 0 10 -7 0 -9 3 -9 10 2 7 11 10 11
10 2 0 -7 5 -10 11 -6 6 3 15 0 20 -7 7 -12 9 -11 9 1 0 11 2 12 8 3 4 -7 22
-13 40 -15 18 -1 32 -6 32 -10 0 -4 9 -8 20 -8 11 0 20 -4 20 -9 0 -5 7 -12
16 -15 15 -6 15 -4 3 11 -13 17 -12 17 6 2 26 -21 88 -54 98 -51 4 1 7 -2 7
-8 0 -5 5 -10 11 -10 5 0 24 -13 42 -30 18 -16 38 -30 45 -30 6 0 12 -7 12
-16 0 -8 5 -12 10 -9 6 3 10 -1 10 -9 0 -9 4 -16 8 -16 5 0 19 -9 32 -20 13
-11 19 -20 14 -20 -5 0 2 -7 14 -16 12 -8 20 -20 17 -25 -4 -5 2 -9 11 -9 10
0 15 -3 11 -6 -3 -4 1 -13 9 -21 8 -8 11 -19 8 -25 -4 -6 -3 -9 2 -6 5 3 15 0
22 -8 7 -8 10 -14 6 -14 -4 0 1 -9 10 -19 10 -11 15 -24 12 -30 -4 -5 4 -17
16 -26 13 -8 22 -18 21 -20 -6 -12 -2 -25 13 -39 11 -11 12 -16 3 -16 -7 0 -4
-6 7 -15 10 -8 15 -15 10 -15 -5 0 -1 -9 9 -20 12 -13 14 -20 5 -20 -10 0 -10
-3 0 -15 7 -8 9 -15 4 -15 -5 0 -3 -4 3 -8 7 -4 15 -19 17 -32 2 -14 5 -25 6
-25 2 0 10 -36 12 -57 1 -10 5 -18 8 -18 3 0 7 -15 8 -32 2 -18 7 -35 13 -36
6 -3 6 -9 -2 -18 -9 -11 -9 -14 1 -14 10 0 10 -3 1 -14 -8 -9 -8 -15 -2 -18 6
-1 11 -24 12 -50 1 -27 5 -48 8 -48 3 0 6 -11 6 -25 0 -14 -4 -25 -9 -25 -6 0
-1 -7 10 -15 10 -8 14 -15 7 -15 -8 0 -9 -9 -3 -30 5 -19 5 -30 -1 -30 -6 0
-5 -8 1 -20 8 -15 8 -20 -2 -20 -9 0 -9 -3 2 -10 9 -6 10 -10 3 -10 -8 0 -9
-9 -3 -30 6 -21 5 -30 -3 -30 -7 0 -6 -4 3 -10 8 -5 10 -10 4 -10 -7 0 -8 -17
-4 -50 4 -33 3 -50 -4 -50 -6 0 -5 -4 3 -9 7 -5 9 -11 4 -14 -5 -3 -7 -28 -3
-57 4 -30 3 -50 -3 -50 -6 0 -7 -3 -4 -7 4 -3 2 -12 -4 -19 -6 -7 -7 -19 -3
-26 11 -18 12 -48 2 -48 -4 0 -8 -17 -8 -38 0 -21 -6 -44 -12 -51 -10 -11 -10
-13 0 -7 14 8 16 -6 2 -20 -5 -5 -10 -28 -12 -52 -2 -23 -7 -42 -12 -42 -5 0
-3 -6 3 -14 10 -12 8 -17 -10 -26 -16 -9 -18 -14 -9 -20 9 -5 9 -9 1 -14 -6
-4 -9 -11 -6 -16 3 -5 1 -11 -5 -15 -6 -4 -8 -11 -5 -16 4 -5 1 -9 -6 -9 -8 0
-7 -5 2 -17 10 -11 10 -14 2 -9 -9 5 -13 0 -13 -13 0 -12 -4 -21 -10 -21 -5 0
-10 -9 -10 -19 0 -11 -6 -26 -13 -33 -8 -7 -12 -19 -9 -26 2 -6 -3 -15 -12
-18 -8 -3 -12 -12 -9 -20 3 -8 0 -14 -7 -14 -6 0 -8 -4 -5 -10 3 -5 1 -10 -5
-10 -7 0 -10 -7 -6 -15 3 -9 -3 -19 -15 -25 -11 -6 -17 -15 -14 -21 4 -5 1 -9
-5 -9 -7 0 -9 -7 -6 -16 3 -8 2 -13 -2 -11 -4 3 -16 -5 -27 -16 -12 -11 -14
-17 -5 -13 8 4 6 0 -5 -9 -11 -9 -19 -21 -17 -26 1 -5 -2 -9 -6 -9 -13 0 -47
-32 -61 -57 -6 -13 -19 -23 -27 -23 -8 0 -12 -4 -9 -10 3 -5 -6 -12 -20 -16
-13 -3 -23 -10 -20 -14 3 -5 -4 -11 -15 -15 -11 -4 -31 -17 -44 -30 -18 -18
-26 -21 -35 -12 -10 9 -12 9 -9 -3 2 -8 -3 -14 -9 -12 -7 1 -13 -3 -13 -9 0
-5 -4 -7 -10 -4 -5 3 -10 1 -10 -5 0 -6 -4 -9 -9 -5 -5 3 -12 1 -16 -5 -3 -5
-15 -10 -26 -10 -11 0 -17 -4 -14 -10 3 -6 -1 -7 -9 -4 -9 3 -16 1 -16 -4 0
-6 -9 -9 -20 -7 -11 2 -20 0 -20 -5 0 -4 -11 -7 -24 -6 -14 2 -27 -3 -30 -11
-4 -10 -10 -11 -25 -3 -14 7 -22 7 -26 0 -4 -6 -22 -10 -40 -8 -18 1 -40 -4
-48 -11 -11 -8 -17 -9 -22 -1 -5 8 -11 7 -23 -2 -13 -11 -14 -11 -7 2 8 13 7
13 -8 1 -13 -10 -17 -10 -17 -1 0 10 -3 10 -15 0 -8 -7 -15 -8 -15 -3 0 5 -7
10 -15 10 -8 0 -15 -3 -15 -6 0 -3 -11 -6 -25 -6 -14 0 -25 5 -25 10 0 6 -5 3
-10 -5 -5 -8 -10 -10 -10 -4 0 5 -21 11 -47 13 -26 1 -49 4 -53 6 -3 2 -26 6
-50 10 -25 4 -51 12 -59 18 -12 9 -13 9 -8 0 5 -8 -1 -8 -19 2 -15 8 -31 12
-36 9 -4 -3 -8 0 -8 5 0 6 -7 11 -16 11 -9 0 -12 5 -8 13 5 8 2 8 -9 -2 -12
-9 -17 -10 -17 -2 0 7 -4 10 -9 6 -6 -3 -14 3 -20 12 -6 11 -11 13 -11 5 0
-13 -3 -12 -43 24 -7 6 -19 9 -27 6 -8 -3 -12 -1 -8 3 10 10 -17 35 -37 35 -9
0 -13 5 -10 10 3 6 -3 10 -14 10 -19 0 -26 11 -22 33 1 5 -3 6 -9 2 -5 -3 -13
1 -16 10 -6 13 -8 14 -15 3 -6 -9 -9 -7 -9 10 0 12 -4 22 -10 22 -13 0 -59 48
-52 54 3 3 0 6 -6 6 -7 0 -12 10 -12 23 0 18 -2 19 -10 7 -8 -13 -10 -12 -10
3 0 10 -4 16 -8 13 -4 -2 -9 5 -9 17 -1 11 -9 25 -18 29 -8 5 -13 13 -10 19 4
5 1 9 -4 9 -6 0 -11 6 -11 14 0 8 -4 16 -9 18 -5 2 -11 12 -13 23 -1 11 -12
28 -22 38 -14 12 -15 17 -5 17 10 0 11 2 2 8 -7 4 -14 17 -16 27 -8 37 -29 85
-36 81 -4 -3 -6 8 -5 22 1 15 -4 38 -11 52 -7 14 -10 31 -8 38 3 6 -1 12 -9
12 -10 0 -9 3 2 10 11 7 11 10 2 10 -7 0 -10 5 -7 10 3 6 0 10 -7 10 -10 0
-10 2 1 9 9 6 10 10 2 16 -7 3 -9 15 -6 26 4 10 2 19 -3 19 -6 0 -9 8 -7 18 1
9 -2 23 -8 30 -6 8 -6 12 2 12 7 0 8 8 1 24 -5 13 -6 27 -3 30 4 3 1 6 -7 6
-10 0 -10 3 0 15 7 9 8 15 2 15 -6 0 -9 8 -8 17 2 9 0 34 -4 54 -4 21 -5 41
-2 44 8 8 6 81 -3 95 -5 9 -4 15 4 18 11 4 11 6 0 13 -11 7 -11 9 -1 9 10 0
10 5 2 20 -8 15 -8 20 2 20 9 0 9 3 -2 10 -9 6 -10 10 -3 10 8 0 9 9 3 30 -6
21 -5 30 3 30 7 0 6 4 -3 10 -11 7 -11 10 -2 10 10 0 10 5 2 20 -8 15 -8 20 2
20 9 0 9 3 -2 10 -11 7 -11 10 -2 10 10 0 10 5 2 20 -7 13 -7 20 -1 20 6 0 8
7 5 15 -4 8 -2 15 2 15 5 0 9 11 9 25 0 14 -4 25 -10 25 -5 0 -3 5 5 10 13 8
13 10 1 10 -12 0 -12 3 -3 12 7 7 12 26 12 43 0 17 6 37 13 44 10 11 10 13 0
7 -16 -9 -17 10 -2 20 6 3 9 19 7 35 -3 15 -1 26 3 24 4 -3 10 2 13 11 4 10 2
13 -7 8 -9 -5 -9 -4 1 7 6 7 12 23 12 36 0 13 6 23 13 24 9 0 9 2 0 6 -9 3
-10 10 -3 22 5 10 6 21 3 25 -3 3 -1 6 6 6 7 0 10 4 6 9 -3 5 1 16 9 24 8 8
12 17 9 21 -3 3 0 12 7 21 7 8 9 15 4 15 -4 0 1 7 12 15 13 10 14 14 5 15 -10
0 -11 3 -2 13 6 8 7 18 3 22 -4 5 -1 5 6 1 11 -7 14 -3 16 27 1 6 8 20 16 30
8 10 14 20 12 23 -2 3 8 16 22 29 14 13 26 29 26 35 0 6 6 8 13 4 9 -5 9 -4 0
6 -9 9 -5 19 18 41 16 15 29 33 29 39 0 6 4 9 9 5 5 -3 13 4 16 16 4 13 12 18
21 15 9 -3 12 -1 9 4 -3 6 -1 10 6 10 7 0 10 3 6 6 -7 7 26 42 36 37 4 -2 7 0
7 6 0 5 9 13 21 16 11 4 18 9 15 12 -8 8 77 52 88 45 5 -3 6 -1 3 5 -6 10 53
43 78 43 8 0 15 4 15 8 0 4 14 13 30 19 23 8 30 8 30 0 1 -7 6 -6 13 3 7 9 19
15 27 15 8 -1 20 1 25 4 16 9 38 13 67 13 15 0 26 4 23 8 -2 3 2 7 10 7 8 0
15 -3 15 -7 0 -3 9 -6 20 -6 11 0 19 5 16 11 -2 6 5 11 15 11 11 0 19 -4 19
-9z m-2107 -1494 c2 -12 1 -23 -4 -23 -4 0 -4 -13 1 -30 5 -16 6 -30 2 -30 -4
0 -7 -20 -7 -45 0 -25 4 -45 8 -45 5 0 5 -5 1 -12 -10 -15 -9 -82 1 -98 5 -9
4 -15 -4 -18 -11 -4 -11 -6 0 -13 11 -7 11 -9 1 -9 -10 0 -10 -5 -2 -20 8 -15
8 -20 -2 -20 -9 0 -9 -3 2 -10 8 -5 10 -10 4 -10 -12 0 -12 -29 0 -48 4 -6 3
-12 -2 -12 -5 0 -8 -12 -8 -27 1 -16 -3 -34 -8 -40 -5 -9 -4 -13 5 -13 11 0
11 -2 -1 -10 -13 -8 -13 -10 0 -10 10 0 11 -3 3 -11 -6 -6 -9 -18 -6 -27 4
-10 2 -13 -5 -8 -7 4 -12 2 -12 -3 0 -6 4 -11 9 -11 11 0 2 -39 -13 -59 -8
-11 -8 -13 1 -8 12 7 1 -37 -19 -77 -7 -14 -6 -16 4 -10 10 6 10 5 2 -7 -6 -8
-10 -22 -9 -32 2 -9 -1 -15 -6 -11 -5 3 -9 -6 -9 -20 0 -14 -5 -26 -11 -26 -5
0 -7 -5 -3 -11 3 -6 -4 -25 -16 -41 -13 -17 -17 -27 -10 -23 17 10 5 -11 -24
-44 -13 -15 -15 -21 -6 -17 8 4 5 -1 -7 -12 -12 -11 -19 -23 -15 -27 4 -3 -1
-11 -11 -16 -9 -6 -17 -15 -17 -22 0 -7 -9 -18 -20 -25 -12 -7 -18 -18 -14
-24 4 -6 3 -8 -4 -4 -6 3 -17 0 -25 -8 -8 -8 -18 -12 -22 -8 -4 4 -6 2 -5 -3
5 -22 -1 -35 -16 -35 -8 0 -13 -4 -10 -9 3 -5 -1 -12 -10 -15 -10 -4 -13 -2
-9 7 4 6 -1 3 -10 -8 -9 -11 -21 -19 -26 -18 -5 2 -9 -2 -9 -7 0 -6 -7 -10
-15 -10 -8 0 -15 -4 -15 -10 0 -5 -7 -10 -16 -10 -8 0 -12 -5 -9 -11 4 -6 0
-9 -11 -7 -12 2 -18 -2 -16 -10 1 -8 -2 -11 -8 -7 -6 4 -27 -4 -47 -16 -22
-14 -33 -17 -28 -8 4 8 -3 4 -17 -9 -13 -12 -28 -19 -31 -15 -4 3 -7 2 -7 -4
0 -5 -6 -10 -12 -11 -28 -2 -73 -14 -78 -20 -3 -4 -18 -9 -35 -11 -16 -1 -36
-8 -42 -13 -9 -7 -13 -7 -13 3 0 8 -6 5 -15 -7 -9 -12 -14 -14 -15 -5 0 10 -6
10 -26 -4 -18 -11 -24 -12 -18 -4 6 12 5 12 -9 0 -13 -10 -17 -10 -17 -1 0 9
-3 10 -13 1 -8 -6 -17 -8 -21 -4 -10 10 -36 12 -36 3 0 -13 -40 -19 -41 -7 0
8 -2 8 -6 0 -3 -9 -10 -10 -24 -3 -14 8 -19 7 -19 -2 0 -9 -3 -9 -10 2 -7 11
-10 11 -10 2 0 -10 -5 -10 -20 -2 -11 6 -20 8 -20 4 0 -3 -7 -1 -15 6 -10 9
-15 9 -15 1 0 -15 -16 -14 -32 2 -6 8 -23 11 -36 9 -19 -4 -23 -2 -17 9 6 11
5 12 -5 2 -11 -10 -17 -9 -32 4 -14 12 -18 13 -18 3 0 -9 -8 -6 -20 8 -21 22
-36 30 -26 13 11 -18 -69 30 -87 52 -10 12 -15 15 -11 7 7 -13 4 -13 -16 1
-14 9 -29 26 -35 37 -5 12 -16 22 -23 22 -7 0 -10 5 -7 10 3 6 1 10 -4 10 -6
0 -11 7 -11 15 0 8 -4 15 -10 15 -5 0 -7 6 -4 14 3 7 -2 16 -11 20 -10 3 -15
12 -11 21 3 8 1 15 -5 15 -6 0 -8 4 -5 9 4 5 2 11 -4 13 -5 1 -10 18 -12 36
-1 17 -6 32 -11 32 -5 0 -3 8 4 17 8 9 9 14 3 10 -16 -9 -27 35 -11 45 9 6 8
8 -3 8 -12 0 -13 2 -1 9 11 7 10 11 -5 20 -13 7 -15 10 -4 11 10 0 11 3 2 12
-8 8 -8 17 0 32 8 15 8 21 0 24 -8 2 -9 9 -2 22 5 10 8 32 6 49 -2 17 1 31 7
31 6 0 7 3 4 7 -4 3 -1 13 6 21 10 13 9 14 -3 7 -13 -8 -13 -7 -1 8 7 9 10 17
6 17 -4 0 -1 8 6 17 12 14 12 16 -1 9 -13 -7 -13 -6 0 6 8 7 16 20 18 28 2 8
9 18 15 22 9 6 9 8 0 8 -7 0 -10 7 -6 16 3 9 12 13 22 9 13 -5 13 -4 4 6 -10
10 -7 17 12 35 13 12 21 25 18 28 -4 3 -1 6 6 6 8 0 11 7 7 15 -3 8 -2 14 2
14 19 -3 33 2 28 10 -3 5 10 16 29 25 19 9 37 22 41 29 5 7 -1 5 -12 -3 -17
-14 -18 -14 -6 2 8 9 19 15 26 12 8 -3 16 2 20 11 4 10 12 15 21 11 9 -3 18 1
21 9 4 8 15 15 25 15 10 0 19 5 19 11 0 5 5 7 10 4 6 -3 10 -1 10 6 0 7 3 9 7
6 3 -4 12 -2 20 4 7 6 13 8 13 3 0 -4 7 1 16 12 8 10 12 12 8 4 -7 -12 -5 -13
8 -3 8 7 18 10 21 6 4 -3 7 -1 7 5 0 6 7 9 15 6 8 -3 29 1 46 10 39 19 42 20
33 4 -4 -7 1 -6 12 3 10 8 28 15 39 15 11 -1 26 6 33 14 12 13 13 12 8 -5 -6
-20 -6 -20 9 -1 11 14 15 16 15 5 0 -9 3 -10 8 -3 4 6 17 10 30 9 12 -1 22 2
22 7 0 5 5 6 10 3 6 -3 10 -1 10 6 0 8 4 8 15 -1 11 -9 15 -9 15 -1 0 7 5 9
10 6 6 -3 10 -1 10 5 0 7 5 8 17 1 12 -6 21 -5 31 7 10 13 15 14 18 5 4 -10
11 -10 25 -2 11 5 24 7 29 4 6 -3 10 -1 10 5 0 6 5 8 10 5 6 -3 10 0 10 7 0 8
3 9 8 3 6 -9 22 -11 47 -5 6 1 13 2 18 1 4 0 7 5 7 11 0 9 4 8 10 -2 7 -12 10
-12 10 -1 0 7 6 11 15 8 8 -4 17 -2 20 3 3 5 13 6 22 3 10 -4 14 -2 10 4 -4 6
3 8 19 5 16 -3 30 1 35 9 8 12 11 12 19 -1 6 -10 10 -11 10 -2 0 6 11 12 24
12 13 0 26 6 29 13 3 9 7 9 20 -2 15 -12 17 -11 17 4 0 10 3 15 7 12 3 -4 13
-1 21 6 11 8 14 8 9 0 -4 -6 11 -2 33 8 22 11 44 18 49 15 4 -3 13 3 21 14 7
10 19 16 26 13 8 -3 16 2 20 10 3 9 14 14 25 12 11 -2 19 2 19 10 0 8 8 12 20
10 11 -2 19 -1 19 3 -4 29 28 24 34 -5z"/>
<path d="M1320 2216 c0 -2 8 -10 18 -17 15 -13 16 -12 3 4 -13 16 -21 21 -21
13z"/>
</g>
</svg>
